# xmcd
#
# Track frame offsets:
#	150
#	12890
#	35045
#	62902
#	75170
#	89042
#	99867
#	113222
#	133520
#	147695
#	168690
#	186082
#	215135
#	241162
#	252190
#	262687
#	298920
#	326595
#
# Disc length: 4550
#
# Revision: 3
# Processed by: cddbd v1.5.1PL0 Copyright (c) Steve Scherf et al.
# Submitted via: DiscPlay 4.0.4
# Normalized: r1:DSETVAR1;r2:TSWAP
#
DISCID=0811c412
DTITLE=Various Artist - Guitar heroes - Volume 1
DYEAR=1900
DGENRE=
TTITLE0=Clapton, Page - Freight loader
TTITLE1=Santana - Soul sacrifice
TTITLE2=Hendrix - Medley: Outside woman blues, Sunshine of your love
TTITLE3=Rush - Double trouble
TTITLE4=Yardbirds, Beck - Jeff`s blues
TTITLE5=King - Them changes
TTITLE6=Magic Sam - All your love
TTITLE7=Hendrix - Under the table 2
TTITLE8=Clapton, Page - Draggin` my tail
TTITLE9=Winter - Goin` down slow
TTITLE10=Santana - As the years go by
TTITLE11=Collins - I ain`t drunk
TTITLE12=Blues breakers, Trout - Ridin` on the L and N
TTITLE13=Hooker - This is hip
TTITLE14=Clapton, Yardbirds - Honey in your hips
TTITLE15=Collins - Lights are on but nobody`s home
TTITLE16=King - We`re gonna boogie
TTITLE17=T Bone Walker - I got a break baby
EXTD=
EXTT0=
EXTT1=
EXTT2=
EXTT3=
EXTT4=
EXTT5=
EXTT6=
EXTT7=
EXTT8=
EXTT9=
EXTT10=
EXTT11=
EXTT12=
EXTT13=
EXTT14=
EXTT15=
EXTT16=
EXTT17=
PLAYORDER=
